<mxfile host="app.diagrams.net" modified="2022-09-12T08:17:53.058Z" agent="5.0 (Windows NT 6.1; Win64; x64) AppleWebKit/537.36 (KHTML, like Gecko) Chrome/100.0.4896.127 Safari/537.36" etag="IiZmD9bRVeBFzA6Sk9G_" version="20.3.0" type="github">
  <diagram id="g6ckFE7u91fx3Fw3e20K" name="第 1 页">
    <mxGraphModel dx="1422" dy="800" grid="1" gridSize="10" guides="1" tooltips="1" connect="1" arrows="1" fold="1" page="1" pageScale="1" pageWidth="827" pageHeight="1169" math="0" shadow="0">
      <root>
        <mxCell id="0" />
        <mxCell id="1" parent="0" />
        <mxCell id="cVddtWvaXsy1h70ijzdg-9" style="edgeStyle=orthogonalEdgeStyle;rounded=0;orthogonalLoop=1;jettySize=auto;html=1;exitX=0.5;exitY=1;exitDx=0;exitDy=0;entryX=0.5;entryY=0;entryDx=0;entryDy=0;" edge="1" parent="1" source="cVddtWvaXsy1h70ijzdg-1" target="cVddtWvaXsy1h70ijzdg-2">
          <mxGeometry relative="1" as="geometry" />
        </mxCell>
        <mxCell id="cVddtWvaXsy1h70ijzdg-10" style="edgeStyle=orthogonalEdgeStyle;rounded=0;orthogonalLoop=1;jettySize=auto;html=1;exitX=0.5;exitY=1;exitDx=0;exitDy=0;" edge="1" parent="1" source="cVddtWvaXsy1h70ijzdg-1" target="cVddtWvaXsy1h70ijzdg-3">
          <mxGeometry relative="1" as="geometry" />
        </mxCell>
        <mxCell id="cVddtWvaXsy1h70ijzdg-11" style="edgeStyle=orthogonalEdgeStyle;rounded=0;orthogonalLoop=1;jettySize=auto;html=1;exitX=0.5;exitY=1;exitDx=0;exitDy=0;" edge="1" parent="1" source="cVddtWvaXsy1h70ijzdg-1" target="cVddtWvaXsy1h70ijzdg-4">
          <mxGeometry relative="1" as="geometry" />
        </mxCell>
        <mxCell id="cVddtWvaXsy1h70ijzdg-12" style="edgeStyle=orthogonalEdgeStyle;rounded=0;orthogonalLoop=1;jettySize=auto;html=1;exitX=0.5;exitY=1;exitDx=0;exitDy=0;entryX=0.5;entryY=0;entryDx=0;entryDy=0;" edge="1" parent="1" source="cVddtWvaXsy1h70ijzdg-1" target="cVddtWvaXsy1h70ijzdg-5">
          <mxGeometry relative="1" as="geometry" />
        </mxCell>
        <mxCell id="cVddtWvaXsy1h70ijzdg-1" value="能量" style="ellipse;whiteSpace=wrap;html=1;" vertex="1" parent="1">
          <mxGeometry x="360" y="220" width="120" height="80" as="geometry" />
        </mxCell>
        <mxCell id="cVddtWvaXsy1h70ijzdg-2" value="情绪" style="ellipse;whiteSpace=wrap;html=1;" vertex="1" parent="1">
          <mxGeometry x="90" y="390" width="120" height="80" as="geometry" />
        </mxCell>
        <mxCell id="cVddtWvaXsy1h70ijzdg-3" value="饮食" style="ellipse;whiteSpace=wrap;html=1;" vertex="1" parent="1">
          <mxGeometry x="290" y="390" width="120" height="80" as="geometry" />
        </mxCell>
        <mxCell id="cVddtWvaXsy1h70ijzdg-4" value="作息" style="ellipse;whiteSpace=wrap;html=1;" vertex="1" parent="1">
          <mxGeometry x="500" y="390" width="120" height="80" as="geometry" />
        </mxCell>
        <mxCell id="cVddtWvaXsy1h70ijzdg-13" style="edgeStyle=orthogonalEdgeStyle;rounded=0;orthogonalLoop=1;jettySize=auto;html=1;exitX=0.5;exitY=1;exitDx=0;exitDy=0;entryX=0.425;entryY=0.017;entryDx=0;entryDy=0;entryPerimeter=0;" edge="1" parent="1" source="cVddtWvaXsy1h70ijzdg-5" target="cVddtWvaXsy1h70ijzdg-6">
          <mxGeometry relative="1" as="geometry" />
        </mxCell>
        <mxCell id="cVddtWvaXsy1h70ijzdg-14" style="edgeStyle=orthogonalEdgeStyle;rounded=0;orthogonalLoop=1;jettySize=auto;html=1;exitX=0.5;exitY=1;exitDx=0;exitDy=0;" edge="1" parent="1" source="cVddtWvaXsy1h70ijzdg-5" target="cVddtWvaXsy1h70ijzdg-7">
          <mxGeometry relative="1" as="geometry" />
        </mxCell>
        <mxCell id="cVddtWvaXsy1h70ijzdg-5" value="健康" style="ellipse;whiteSpace=wrap;html=1;" vertex="1" parent="1">
          <mxGeometry x="700" y="390" width="120" height="80" as="geometry" />
        </mxCell>
        <mxCell id="cVddtWvaXsy1h70ijzdg-6" value="血压" style="ellipse;whiteSpace=wrap;html=1;" vertex="1" parent="1">
          <mxGeometry x="650" y="550" width="80" height="60" as="geometry" />
        </mxCell>
        <mxCell id="cVddtWvaXsy1h70ijzdg-7" value="皮肤" style="ellipse;whiteSpace=wrap;html=1;" vertex="1" parent="1">
          <mxGeometry x="800" y="550" width="80" height="60" as="geometry" />
        </mxCell>
      </root>
    </mxGraphModel>
  </diagram>
</mxfile>
